<?xml version="1.0" encoding="UTF-8" standalone="no"?>
<!-- Created with Inkscape (http://www.inkscape.org/) -->

<svg
   xmlns:dc="http://purl.org/dc/elements/1.1/"
   xmlns:cc="http://creativecommons.org/ns#"
   xmlns:rdf="http://www.w3.org/1999/02/22-rdf-syntax-ns#"
   xmlns:svg="http://www.w3.org/2000/svg"
   xmlns="http://www.w3.org/2000/svg"
   xmlns:sodipodi="http://sodipodi.sourceforge.net/DTD/sodipodi-0.dtd"
   xmlns:inkscape="http://www.inkscape.org/namespaces/inkscape"
   version="1.1"
   id="svg3713"
   width="284"
   height="199"
   viewBox="0 0 284 199"
   sodipodi:docname="koda.svg"
   inkscape:version="0.92.5 (2060ec1f9f, 2020-04-08)">
  <metadata
     id="metadata3719">
    <rdf:RDF>
      <cc:Work
         rdf:about="">
        <dc:format>image/svg+xml</dc:format>
        <dc:type
           rdf:resource="http://purl.org/dc/dcmitype/StillImage" />
        <dc:title></dc:title>
      </cc:Work>
    </rdf:RDF>
  </metadata>
  <defs
     id="defs3717" />
  <sodipodi:namedview
     pagecolor="#ffffff"
     bordercolor="#666666"
     borderopacity="1"
     objecttolerance="10"
     gridtolerance="10"
     guidetolerance="10"
     inkscape:pageopacity="0"
     inkscape:pageshadow="2"
     inkscape:window-width="1920"
     inkscape:window-height="1017"
     id="namedview3715"
     showgrid="false"
     showborder="true"
     inkscape:zoom="1.5065994"
     inkscape:cx="5.435518"
     inkscape:cy="188.33427"
     inkscape:window-x="-8"
     inkscape:window-y="-8"
     inkscape:window-maximized="1"
     inkscape:current-layer="svg3713" />
  <path
     id="path3723"
     style="fill:#da0071;fill-opacity:1"
     d="m 65.280387,0.33160117 c -0.007,0.01819 -0.0147,0.02555 -0.0215,0.04297 0.0865,-0.01441 0.17299,-0.03019 0.25977,-0.04297 z m 0.73047,0 c 0.0104,0.0016 0.0209,0.0027 0.0312,0.0039 0.16547,0.01896 0.28241,0.01371 0.38672,-0.0039 z m -2.01562,0.08203 c -0.0154,0.05442 -0.039,0.109177 -0.0606,0.164063 0.0588,0.0059 0.11771,0.01147 0.17578,0.01563 -0.0386,-0.05623 -0.0769,-0.118348 -0.11524,-0.179688 z M 277.10461,1.3023032 c -0.002,10e-4 0.0249,0.02595 0.0254,0.0293 h 0.0469 c -0.004,-0.0023 -0.008,-0.0056 -0.0117,-0.0078 -0.0337,-0.01807 -0.0538,-0.02444 -0.0606,-0.02148 z M 0.02062736,6.2241792 c -0.0946,0.02972 -0.19071,0.06006 -0.29297,0.08984 0.0124,0.0098 0.0289,0.02152 0.041,0.03125 z M 171.20227,48.341366 c -0.3484,-0.0055 -11.96261,11.521161 -25.81055,25.613281 l -25.17773,25.621091 8.33007,8.628912 c 4.58149,4.74537 15.69324,16.38945 24.69336,25.87695 9.00012,9.4875 16.63795,17.25 16.97266,17.25 0.33471,0 9.45225,-8.83543 20.26172,-19.63476 l 19.65234,-19.63477 9.44727,0.18945 c 10.65426,0.2149 16.463,-1.44897 19.7832,-5.66992 2.75205,-3.49867 2.69629,-11.070432 -0.10742,-14.634765 -3.5942,-4.56929 -6.90516,-5.615231 -17.78711,-5.615235 -8.53521,0 -10.02416,0.242922 -10.30078,1.675782 -0.21843,1.13146 -6.64833,-5.029425 -19.82227,-18.990235 -10.725,-11.3656 -19.78635,-20.670781 -20.13476,-20.675781 z m -0.24414,4.191406 c 0.61788,-0.16442 9.95488,9.06058 20.74804,20.5 l 19.625,20.798826 0.002,6.597662 0.004,6.59765 -20.09375,20.65235 c -11.05093,11.35867 -20.38843,20.65285 -20.75,20.65234 -0.63836,-8.9e-4 -43.6952,-44.88647 -45.61718,-47.55469 -0.71538,-0.993112 4.87577,-7.255222 22,-24.638669 12.62752,-12.81867 23.46415,-23.441049 24.08203,-23.605469 z M 192.00305,85.3316 c -9.32029,0 -15.65411,5.380369 -15.66211,13.300778 -0.007,6.917322 3.76545,11.495682 11.11523,13.492192 9.88983,2.68648 19.93296,-3.60685 20.05664,-12.568362 0.11517,-8.345165 -6.29447,-14.224575 -15.50976,-14.224608 z m 61.62305,0.91211 -5.26368,11.794918 c -2.89524,6.486672 -5.48338,12.355472 -5.75195,13.042972 -0.35054,0.89734 0.90797,1.25 4.45899,1.25 4.35559,0 5.08654,-0.30992 6.1289,-2.59765 0.79164,-1.73746 1.69992,-2.39996 2.74219,-2 0.8572,0.32894 3.2922,0.59765 5.41015,0.59765 2.97258,0 3.99633,0.45614 4.48633,2 0.52175,1.6439 1.51205,2 5.56641,2 2.71293,0 4.92331,-0.3375 4.91211,-0.75 -0.0112,-0.4125 -2.39877,-6.15 -5.30664,-12.750002 L 265.7218,86.8316 259.67492,86.538632 Z M 145.33703,86.3316 v 12.333988 c 0,6.783332 0.29935,12.633342 0.66602,13.000002 0.36666,0.36667 2.37103,0.66601 4.45312,0.66601 h 3.78516 l 0.29687,-6.25 0.29883,-6.250002 4.44532,6.250002 4.44726,6.25 h 5.30274 c 2.91673,0 5.30468,-0.34321 5.30468,-0.76367 0,-0.42046 -2.25,-3.54663 -5,-6.94531 -2.75,-3.39868 -5,-6.475342 -5,-6.837892 0,-0.36255 2.08495,-2.97582 4.63477,-5.806643 l 4.63672,-5.146485 -4.87891,-0.314453 c -4.65398,-0.30021 -5.0763,-0.10487 -9.19141,4.25 -2.37206,2.510581 -4.51306,4.564451 -4.75781,4.564451 -0.24475,0 -0.44336,-2.025 -0.44336,-4.499998 v -4.5 h -4.5 z m 46.5,5 c 2.66902,0 6.5,4.244468 6.5,7.201168 0,2.236772 -1.8042,5.967402 -3.40039,7.033212 -3.59032,2.39731 -9.59961,-1.81843 -9.59961,-6.734382 0,-3.21239 3.71592,-7.499998 6.5,-7.499998 z m 33.06836,1.160158 c 4.15116,0.114778 7.84693,3.993101 6.98438,7.640622 -0.35113,1.48482 -1.56955,3.48672 -2.70703,4.44922 -1.13747,0.9625 -3.36797,1.75 -4.95704,1.75 -3.10919,0 -2.88971,0.67116 -3.26562,-10.000001 -0.11428,-3.24425 0.11229,-3.52319 3.10938,-3.812498 0.27957,-0.02699 0.55919,-0.03499 0.83593,-0.02734 z M 6.3370274,93.331599 v 5 5.000001 H 60.837027 115.33703 v -5.000001 -5 H 60.837027 Z m 253.1503926,2.09571 c 0.43686,0.0318 0.81103,0.5827 1.11914,1.65429 0.27674,0.9625 0.82641,2.5375 1.22266,3.500001 0.59519,1.44575 0.1801,1.75 -2.38672,1.75 -3.40391,0 -3.68256,-0.6403 -1.94531,-4.453121 0.76315,-1.67495 1.42856,-2.49211 1.99023,-2.45117 z m 23.84961,38.796871 c -3.1e-4,0.008 -0.004,0.02 -0.004,0.0273 0.002,0.006 0.002,0.0132 0.004,0.0195 z m -168.5,64.10742 c 0.0381,-7.4e-4 0.0717,0.005 0.11133,0.004 -5e-5,-0.001 5e-5,-0.003 0,-0.004 z m 28.28516,0 c 0.005,0.002 0.0167,0.006 0.0215,0.008 0.13468,-4e-4 0.26947,-0.005 0.4043,-0.008 z"
     inkscape:connector-curvature="0" />
</svg>
